<?xml version="1.0" standalone="no"?>
<!DOCTYPE svg PUBLIC "-//W3C//DTD SVG 20010904//EN"
 "http://www.w3.org/TR/2001/REC-SVG-20010904/DTD/svg10.dtd">
<svg version="1.0" xmlns="http://www.w3.org/2000/svg"
 width="260.000000pt" height="260.000000pt" viewBox="0 0 260.000000 260.000000"
 preserveAspectRatio="xMidYMid meet">
<metadata>
Created by potrace 1.11, written by Peter Selinger 2001-2013
</metadata>
<g transform="translate(0.000000,260.000000) scale(0.100000,-0.100000)"
fill="#000000" stroke="none">
<path d="M1032 2584 c-252 -55 -476 -178 -657 -359 -181 -180 -300 -397 -356
-645 -27 -122 -27 -438 0 -560 56 -248 175 -465 356 -645 184 -184 409 -306
664 -360 100 -21 422 -21 522 0 255 54 480 176 664 360 181 180 300 397 356
645 27 122 27 438 0 560 -56 248 -175 465 -356 645 -184 184 -409 306 -664
360 -94 20 -437 19 -529 -1z m566 -28 c375 -95 698 -353 851 -681 56 -119 97
-398 87 -584 -25 -452 -248 -831 -616 -1046 -192 -111 -397 -165 -636 -165
-350 0 -638 119 -934 385 -163 148 -261 330 -317 595 -24 118 -24 372 0 490
56 262 161 463 344 651 194 200 424 323 698 374 129 23 392 14 523 -19z"/>
<path d="M694 1585 c-4 -8 -4 -29 0 -45 3 -17 1 -30 -4 -30 -6 0 -10 9 -10 20
0 14 -7 20 -24 20 -13 0 -29 7 -36 15 -28 34 -87 -6 -64 -42 15 -24 62 -29 70
-9 9 22 24 20 24 -3 0 -12 8 -21 21 -23 15 -2 23 -11 25 -30 2 -24 -1 -28 -22
-28 -15 0 -24 6 -24 15 0 13 -24 15 -159 15 -135 0 -160 2 -165 16 -8 20 -55
15 -70 -9 -8 -12 -8 -22 0 -35 15 -23 62 -28 70 -8 9 23 304 24 304 1 0 -10
11 -15 35 -15 24 0 35 -5 35 -15 0 -20 -37 -19 -57 1 -32 32 -91 -6 -67 -43
15 -24 62 -29 70 -9 7 17 54 22 54 6 0 -5 -11 -10 -25 -10 -16 0 -25 -6 -25
-15 0 -12 -14 -15 -62 -15 l-63 0 0 37 c0 37 -1 38 -40 41 -22 2 -44 8 -50 13
-32 31 -86 -11 -65 -51 13 -24 58 -27 66 -5 4 9 19 15 35 15 26 0 29 -3 29
-35 l0 -35 91 0 c77 0 90 2 85 15 -3 9 0 15 8 15 8 0 14 -11 14 -25 0 -25 -2
-25 -84 -25 -68 0 -84 -3 -84 -15 0 -12 -17 -15 -90 -15 l-90 0 0 30 c0 29 -2
30 -44 30 -27 0 -48 6 -56 15 -28 34 -87 -6 -64 -42 15 -24 48 -28 64 -8 7 8
28 15 46 15 32 0 34 -2 34 -35 l0 -35 111 0 c103 0 111 1 116 20 5 18 12 20
71 18 41 -2 67 -8 70 -15 3 -10 -12 -13 -52 -13 -49 0 -56 -2 -56 -20 0 -17
-7 -20 -48 -20 -26 0 -53 5 -59 11 -16 16 -51 2 -59 -23 -9 -30 29 -62 57 -48
10 6 19 15 19 20 0 6 25 10 55 10 48 0 55 2 55 20 0 17 7 20 43 20 39 0 43 -3
43 -22 -1 -22 -6 -23 -96 -28 l-95 -5 -3 -32 -3 -33 -99 0 c-80 0 -99 3 -104
16 -8 20 -55 15 -70 -9 -8 -12 -8 -22 0 -35 15 -23 62 -28 70 -8 5 13 26 16
120 16 l114 0 0 30 c0 28 2 30 41 30 37 0 39 -1 25 -16 -19 -18 -19 -20 -6
-45 14 -26 56 -25 70 2 15 28 34 19 35 -17 l0 -29 128 -3 127 -3 0 46 0 45
-75 0 -75 0 -2 253 -3 252 -48 3 c-36 2 -49 -1 -53 -13z m-92 -57 c-9 -9 -15
-9 -24 0 -10 10 -10 15 2 22 20 12 38 -6 22 -22z m-296 -69 c8 -14 -11 -33
-25 -25 -11 7 -4 36 9 36 5 0 12 -5 16 -11z m112 -86 c-4 -22 -22 -20 -26 1
-2 10 3 16 13 16 10 0 15 -7 13 -17z m208 6 c3 -6 1 -16 -5 -22 -9 -9 -14 -8
-21 3 -9 15 -4 30 10 30 5 0 12 -5 16 -11z m-390 -80 c10 -17 -13 -36 -27 -22
-12 12 -4 33 11 33 5 0 12 -5 16 -11z m244 -144 c0 -8 -7 -15 -15 -15 -8 0
-15 7 -15 15 0 8 7 15 15 15 8 0 15 -7 15 -15z m220 -55 c0 -5 -9 -10 -19 -10
-11 0 -23 5 -26 10 -4 6 5 10 19 10 14 0 26 -4 26 -10z m-60 -36 c0 -16 -16
-19 -25 -4 -8 13 4 32 16 25 5 -4 9 -13 9 -21z m-365 -4 c0 -7 -6 -15 -12 -17
-8 -3 -13 4 -13 17 0 13 5 20 13 18 6 -3 12 -11 12 -18z"/>
<path d="M1056 1573 c-11 -54 -86 -537 -86 -555 0 -15 8 -18 44 -18 l45 0 6
55 7 55 53 0 53 0 9 -52 8 -53 53 -3 c50 -3 52 -2 47 20 -7 32 -41 238 -65
398 -30 200 -19 180 -99 180 -68 0 -70 -1 -75 -27z m97 -290 l13 -83 -39 0
-40 0 6 38 c3 20 12 78 19 127 14 101 10 110 41 -82z"/>
<path d="M1340 1300 l0 -300 45 0 45 0 0 198 1 197 34 -130 c19 -71 43 -159
52 -195 l18 -65 53 -3 52 -3 0 300 0 301 -45 0 -45 0 -1 -162 -1 -163 -33 125
c-19 69 -39 142 -45 163 l-11 37 -59 0 -60 0 0 -300z"/>
<path d="M1707 1593 c-4 -3 -7 -138 -7 -300 l0 -293 45 0 45 0 1 183 1 182 30
-182 30 -183 49 0 c32 0 49 4 49 13 1 23 48 328 51 332 2 2 3 -75 1 -171 l-3
-174 50 0 51 0 0 300 0 300 -65 0 c-47 0 -67 -4 -71 -14 -3 -8 -18 -97 -34
-198 -15 -100 -28 -178 -29 -173 -1 11 -47 297 -56 353 l-6 32 -63 0 c-34 0
-66 -3 -69 -7z"/>
<path d="M2218 1584 c-51 -27 -76 -104 -57 -178 9 -38 29 -66 91 -133 77 -84
79 -86 76 -132 -3 -45 -3 -46 -38 -46 -35 0 -35 0 -38 48 l-3 47 -50 0 -49 0
0 -40 c0 -95 51 -150 137 -150 100 0 143 44 143 145 0 72 -22 114 -99 190 -65
64 -87 109 -71 151 7 16 17 24 34 24 29 0 43 -16 48 -55 3 -28 7 -30 46 -33
l42 -3 0 41 c0 57 -23 106 -59 124 -38 20 -117 20 -153 0z"/>
</g>
</svg>
